<svg width="164" height="187" viewBox="0 0 164 187" fill="none" xmlns="http://www.w3.org/2000/svg">
<path fill-rule="evenodd" clip-rule="evenodd" d="M163.625 105.188C163.625 150.371 126.996 187 81.8125 187C36.6287 187 0 150.371 0 105.188C0 64.2813 35.0625 35.0625 35.0625 35.0625H58.4375V52.5938C58.4375 59.0485 63.6702 64.2813 70.125 64.2813C76.5798 64.2813 81.8125 59.0485 81.8125 52.5938V0H105.188C105.188 0 163.625 35.0625 163.625 105.188ZM105.188 140.25C105.188 153.16 94.7222 163.625 81.8125 163.625C68.9028 163.625 58.4375 153.16 58.4375 140.25C58.4375 111.031 81.8125 93.5 81.8125 93.5C81.8125 93.5 105.188 111.031 105.188 140.25Z" fill="white"/>
</svg>
